<?xml version="1.0" encoding="UTF-8"?>
<svg id="Capa_2" data-name="Capa 2" xmlns="http://www.w3.org/2000/svg" viewBox="0 0 5.67 4.83">
  <defs>
    <style>
      .cls-1 {
        fill: #315faa;
      }

      .cls-1, .cls-2, .cls-3 {
        stroke-width: 0px;
      }

      .cls-2 {
        fill: #274496;
      }

      .cls-3 {
        fill: #1ba2d9;
      }
    </style>
  </defs>
  <g id="Capa_1-2" data-name="Capa 1">
    <path class="cls-3" d="m2.04,1.45H.95v.45h.85v1.77c0,.24-.06.42-.17.55s-.27.19-.48.19-.38-.06-.49-.19-.17-.31-.17-.55h-.49c0,.37.1.65.3.86s.48.31.85.31.64-.1.84-.31.3-.49.3-.86V1.45h-.25Z"/>
    <polygon class="cls-1" points="3.48 0 3.48 1.45 2.3 1.45 2.3 0 1.81 0 1.81 3.33 2.3 3.33 2.3 1.9 3.48 1.9 3.48 3.33 3.97 3.33 3.97 0 3.48 0"/>
    <polygon class="cls-2" points="3.95 2.89 3.95 0 3.46 0 3.46 2.89 3.46 3.33 3.95 3.33 5.67 3.33 5.67 2.89 3.95 2.89"/>
  </g>
</svg>